<svg width="32" height="32" viewBox="0 0 32 32" fill="none" xmlns="http://www.w3.org/2000/svg">
<g filter="url(#filter0_d_0_7602)">
<path fill-rule="evenodd" clip-rule="evenodd" d="M16 0C9.373 0 4 5.373 4 12C4 18.627 9.373 24 16 24C22.627 24 28 18.627 28 12C28 5.373 22.627 0 16 0ZM20.441 16.892C18.339 17.036 13.657 17.036 11.558 16.892C9.282 16.736 9.017 15.622 9 12C9.017 8.371 9.285 7.264 11.558 7.108C13.657 6.964 18.34 6.964 20.441 7.108C22.718 7.264 22.982 8.378 23 12C22.982 15.629 22.715 16.736 20.441 16.892ZM18.917 11.996L14 9.658V14.342L18.917 11.996Z" fill="#E7816B"/>
</g>
<defs>
<filter id="filter0_d_0_7602" x="0" y="0" width="32" height="32" filterUnits="userSpaceOnUse" color-interpolation-filters="sRGB">
<feFlood flood-opacity="0" result="BackgroundImageFix"/>
<feColorMatrix in="SourceAlpha" type="matrix" values="0 0 0 0 0 0 0 0 0 0 0 0 0 0 0 0 0 0 127 0" result="hardAlpha"/>
<!-- <feOffset dy="4"/> -->
<!-- <feGaussianBlur stdDeviation="2"/> -->
<feComposite in2="hardAlpha" operator="out"/>
<feColorMatrix type="matrix" values="0 0 0 0 0 0 0 0 0 0 0 0 0 0 0 0 0 0 0.25 0"/>
<feBlend mode="normal" in2="BackgroundImageFix" result="effect1_dropShadow_0_7602"/>
<feBlend mode="normal" in="SourceGraphic" in2="effect1_dropShadow_0_7602" result="shape"/>
</filter>
</defs>
</svg>
